<?xml version="1.0" encoding="us-ascii" standalone="no"?><svg xmlns="http://www.w3.org/2000/svg" xmlns:xlink="http://www.w3.org/1999/xlink" contentStyleType="text/css" height="525px" preserveAspectRatio="none" style="width:495px;height:525px;background:#FFFFFF;" version="1.1" viewBox="0 0 495 525" width="495px" zoomAndPan="magnify"><defs/><g><!--class Shape--><g id="elem_Shape"><rect codeLine="2" fill="#F1F1F1" height="153.6563" id="Shape" rx="2.5" ry="2.5" style="stroke:#181818;stroke-width:0.5;" width="158" x="138" y="7"/><ellipse cx="192.25" cy="23" fill="#A9DCDF" rx="11" ry="11" style="stroke:#181818;stroke-width:1.0;"/><path d="M194.4375,24.7656 L190.2969,24.7656 L189.875,25.7969 L190.2969,25.7969 Q190.9063,25.7969 191.1719,26.0313 Q191.4375,26.2656 191.4375,26.6563 Q191.4375,27.0313 191.1719,27.2656 Q190.9063,27.5 190.2969,27.5 L188,27.5 Q187.3906,27.5 187.1406,27.2656 Q186.875,27.0313 186.875,26.6406 Q186.875,26.2656 187.1563,26.0313 Q187.4219,25.7813 188.0469,25.7969 L190.7188,19.1406 L189.6094,19.1406 Q189,19.1406 188.7344,18.9063 Q188.4688,18.6719 188.4688,18.2813 Q188.4688,17.9063 188.7344,17.6719 Q189,17.4375 189.6094,17.4375 L193.2813,17.4375 L196.6719,25.7969 Q197.2656,25.7969 197.4531,25.9375 Q197.8438,26.2031 197.8438,26.6563 Q197.8438,27.0313 197.5781,27.2656 Q197.3281,27.5 196.7188,27.5 L194.4219,27.5 Q193.8125,27.5 193.5469,27.2656 Q193.2813,27.0313 193.2813,26.6406 Q193.2813,26.2656 193.5469,26.0313 Q193.8125,25.7969 194.4219,25.7969 L194.8438,25.7969 L194.4375,24.7656 Z M193.7188,23.0625 L192.3594,19.6875 L190.9844,23.0625 L193.7188,23.0625 Z " fill="#000000"/><text fill="#000000" font-family="sans-serif" font-size="14" font-style="italic" lengthAdjust="spacing" textLength="41" x="212.75" y="28.7285">Shape</text><line style="stroke:#181818;stroke-width:0.5;" x1="139" x2="295" y1="39" y2="39"/><text fill="#000000" font-family="sans-serif" font-size="14" lengthAdjust="spacing" textLength="74" x="144" y="57.5332">-string label</text><text fill="#000000" font-family="sans-serif" font-size="14" lengthAdjust="spacing" textLength="58" x="144" y="75.1426">-double x</text><text fill="#000000" font-family="sans-serif" font-size="14" lengthAdjust="spacing" textLength="59" x="144" y="92.752">-double y</text><line style="stroke:#181818;stroke-width:0.5;" x1="139" x2="295" y1="99.8281" y2="99.8281"/><text fill="#000000" font-family="sans-serif" font-size="14" lengthAdjust="spacing" textLength="112" x="144" y="118.3613">+Shape(xmlNode)</text><text fill="#000000" font-family="sans-serif" font-size="14" font-style="italic" lengthAdjust="spacing" textLength="130" x="144" y="135.9707">+virtual void draw(...)</text><text fill="#000000" font-family="sans-serif" font-size="14" lengthAdjust="spacing" textLength="146" x="144" y="153.5801">+virtual string dump(...)</text></g><!--class Circle--><g id="elem_Circle"><rect codeLine="11" fill="#F1F1F1" height="136.0469" id="Circle" rx="2.5" ry="2.5" style="stroke:#181818;stroke-width:0.5;" width="172" x="7" y="239"/><ellipse cx="70.75" cy="255" fill="#ADD1B2" rx="11" ry="11" style="stroke:#181818;stroke-width:1.0;"/><path d="M73.5156,250.875 Q73.6719,250.6563 73.8594,250.5469 Q74.0469,250.4375 74.2656,250.4375 Q74.6406,250.4375 74.875,250.7031 Q75.1094,250.9531 75.1094,251.5625 L75.1094,253.0156 Q75.1094,253.625 74.875,253.8906 Q74.6406,254.1563 74.2656,254.1563 Q73.9219,254.1563 73.7188,253.9531 Q73.5156,253.7656 73.4063,253.25 Q73.3594,252.8906 73.1719,252.7031 Q72.8438,252.3281 72.2344,252.1094 Q71.625,251.8906 71,251.8906 Q70.2344,251.8906 69.5938,252.2188 Q68.9688,252.5469 68.4688,253.2969 Q67.9844,254.0469 67.9844,255.0781 L67.9844,256.1719 Q67.9844,257.4063 68.875,258.2344 Q69.7656,259.0469 71.3594,259.0469 Q72.2969,259.0469 72.9531,258.7969 Q73.3438,258.6406 73.7656,258.2031 Q74.0313,257.9375 74.1719,257.8594 Q74.3281,257.7813 74.5313,257.7813 Q74.8594,257.7813 75.1094,258.0469 Q75.375,258.2969 75.375,258.6406 Q75.375,258.9844 75.0313,259.3906 Q74.5313,259.9688 73.7344,260.2969 Q72.6563,260.75 71.3594,260.75 Q69.8438,260.75 68.6406,260.125 Q67.6563,259.625 66.9688,258.5625 Q66.2813,257.4844 66.2813,256.2031 L66.2813,255.0469 Q66.2813,253.7188 66.8906,252.5781 Q67.5156,251.4219 68.6094,250.8125 Q69.7031,250.1875 70.9375,250.1875 Q71.6719,250.1875 72.3125,250.3594 Q72.9688,250.5156 73.5156,250.875 Z " fill="#000000"/><text fill="#000000" font-family="sans-serif" font-size="14" lengthAdjust="spacing" textLength="36" x="91.25" y="260.7285">Circle</text><line style="stroke:#181818;stroke-width:0.5;" x1="8" x2="178" y1="271" y2="271"/><text fill="#000000" font-family="sans-serif" font-size="14" lengthAdjust="spacing" textLength="57" x="13" y="289.5332">-double r</text><text fill="#000000" font-family="sans-serif" font-size="14" lengthAdjust="spacing" textLength="75" x="13" y="307.1426">-string color</text><line style="stroke:#181818;stroke-width:0.5;" x1="8" x2="178" y1="314.2188" y2="314.2188"/><text fill="#000000" font-family="sans-serif" font-size="14" lengthAdjust="spacing" textLength="107" x="13" y="332.752">+Circle(xmlNode)</text><text fill="#000000" font-family="sans-serif" font-size="14" lengthAdjust="spacing" textLength="116" x="13" y="350.3613">+draw(...) override</text><text fill="#000000" font-family="sans-serif" font-size="14" lengthAdjust="spacing" textLength="160" x="13" y="367.9707">+string dump(...) override</text></g><!--class Group--><g id="elem_Group"><rect codeLine="20" fill="#F1F1F1" height="100.8281" id="Group" rx="2.5" ry="2.5" style="stroke:#181818;stroke-width:0.5;" width="172" x="214" y="256.5"/><ellipse cx="275.75" cy="272.5" fill="#ADD1B2" rx="11" ry="11" style="stroke:#181818;stroke-width:1.0;"/><path d="M278.5156,268.375 Q278.6719,268.1563 278.8594,268.0469 Q279.0469,267.9375 279.2656,267.9375 Q279.6406,267.9375 279.875,268.2031 Q280.1094,268.4531 280.1094,269.0625 L280.1094,270.5156 Q280.1094,271.125 279.875,271.3906 Q279.6406,271.6563 279.2656,271.6563 Q278.9219,271.6563 278.7188,271.4531 Q278.5156,271.2656 278.4063,270.75 Q278.3594,270.3906 278.1719,270.2031 Q277.8438,269.8281 277.2344,269.6094 Q276.625,269.3906 276,269.3906 Q275.2344,269.3906 274.5938,269.7188 Q273.9688,270.0469 273.4688,270.7969 Q272.9844,271.5469 272.9844,272.5781 L272.9844,273.6719 Q272.9844,274.9063 273.875,275.7344 Q274.7656,276.5469 276.3594,276.5469 Q277.2969,276.5469 277.9531,276.2969 Q278.3438,276.1406 278.7656,275.7031 Q279.0313,275.4375 279.1719,275.3594 Q279.3281,275.2813 279.5313,275.2813 Q279.8594,275.2813 280.1094,275.5469 Q280.375,275.7969 280.375,276.1406 Q280.375,276.4844 280.0313,276.8906 Q279.5313,277.4688 278.7344,277.7969 Q277.6563,278.25 276.3594,278.25 Q274.8438,278.25 273.6406,277.625 Q272.6563,277.125 271.9688,276.0625 Q271.2813,274.9844 271.2813,273.7031 L271.2813,272.5469 Q271.2813,271.2188 271.8906,270.0781 Q272.5156,268.9219 273.6094,268.3125 Q274.7031,267.6875 275.9375,267.6875 Q276.6719,267.6875 277.3125,267.8594 Q277.9688,268.0156 278.5156,268.375 Z " fill="#000000"/><text fill="#000000" font-family="sans-serif" font-size="14" lengthAdjust="spacing" textLength="40" x="296.25" y="278.2285">Group</text><line style="stroke:#181818;stroke-width:0.5;" x1="215" x2="385" y1="288.5" y2="288.5"/><line style="stroke:#181818;stroke-width:0.5;" x1="215" x2="385" y1="296.5" y2="296.5"/><text fill="#000000" font-family="sans-serif" font-size="14" lengthAdjust="spacing" textLength="111" x="220" y="315.0332">+Group(xmlNode)</text><text fill="#000000" font-family="sans-serif" font-size="14" lengthAdjust="spacing" textLength="116" x="220" y="332.6426">+draw(...) override</text><text fill="#000000" font-family="sans-serif" font-size="14" lengthAdjust="spacing" textLength="160" x="220" y="350.252">+string dump(...) override</text></g><!--class Drawing--><g id="elem_Drawing"><rect codeLine="28" fill="#F1F1F1" height="65.6094" id="Drawing" rx="2.5" ry="2.5" style="stroke:#181818;stroke-width:0.5;" width="128" x="236" y="453"/><ellipse cx="271.25" cy="469" fill="#ADD1B2" rx="11" ry="11" style="stroke:#181818;stroke-width:1.0;"/><path d="M274.0156,464.875 Q274.1719,464.6563 274.3594,464.5469 Q274.5469,464.4375 274.7656,464.4375 Q275.1406,464.4375 275.375,464.7031 Q275.6094,464.9531 275.6094,465.5625 L275.6094,467.0156 Q275.6094,467.625 275.375,467.8906 Q275.1406,468.1563 274.7656,468.1563 Q274.4219,468.1563 274.2188,467.9531 Q274.0156,467.7656 273.9063,467.25 Q273.8594,466.8906 273.6719,466.7031 Q273.3438,466.3281 272.7344,466.1094 Q272.125,465.8906 271.5,465.8906 Q270.7344,465.8906 270.0938,466.2188 Q269.4688,466.5469 268.9688,467.2969 Q268.4844,468.0469 268.4844,469.0781 L268.4844,470.1719 Q268.4844,471.4063 269.375,472.2344 Q270.2656,473.0469 271.8594,473.0469 Q272.7969,473.0469 273.4531,472.7969 Q273.8438,472.6406 274.2656,472.2031 Q274.5313,471.9375 274.6719,471.8594 Q274.8281,471.7813 275.0313,471.7813 Q275.3594,471.7813 275.6094,472.0469 Q275.875,472.2969 275.875,472.6406 Q275.875,472.9844 275.5313,473.3906 Q275.0313,473.9688 274.2344,474.2969 Q273.1563,474.75 271.8594,474.75 Q270.3438,474.75 269.1406,474.125 Q268.1563,473.625 267.4688,472.5625 Q266.7813,471.4844 266.7813,470.2031 L266.7813,469.0469 Q266.7813,467.7188 267.3906,466.5781 Q268.0156,465.4219 269.1094,464.8125 Q270.2031,464.1875 271.4375,464.1875 Q272.1719,464.1875 272.8125,464.3594 Q273.4688,464.5156 274.0156,464.875 Z " fill="#000000"/><text fill="#000000" font-family="sans-serif" font-size="14" lengthAdjust="spacing" textLength="51" x="289.75" y="474.7285">Drawing</text><line style="stroke:#181818;stroke-width:0.5;" x1="237" x2="363" y1="485" y2="485"/><line style="stroke:#181818;stroke-width:0.5;" x1="237" x2="363" y1="493" y2="493"/><text fill="#000000" font-family="sans-serif" font-size="14" lengthAdjust="spacing" textLength="116" x="242" y="511.5332">+draw(...) override</text></g><!--class SFML_output--><g id="elem_SFML_output"><rect codeLine="32" fill="#F1F1F1" height="100.8281" id="SFML_output" rx="2.5" ry="2.5" style="stroke:#181818;stroke-width:0.5;" width="157" x="331.5" y="33.5"/><ellipse cx="364.5" cy="49.5" fill="#ADD1B2" rx="11" ry="11" style="stroke:#181818;stroke-width:1.0;"/><path d="M367.2656,45.375 Q367.4219,45.1563 367.6094,45.0469 Q367.7969,44.9375 368.0156,44.9375 Q368.3906,44.9375 368.625,45.2031 Q368.8594,45.4531 368.8594,46.0625 L368.8594,47.5156 Q368.8594,48.125 368.625,48.3906 Q368.3906,48.6563 368.0156,48.6563 Q367.6719,48.6563 367.4688,48.4531 Q367.2656,48.2656 367.1563,47.75 Q367.1094,47.3906 366.9219,47.2031 Q366.5938,46.8281 365.9844,46.6094 Q365.375,46.3906 364.75,46.3906 Q363.9844,46.3906 363.3438,46.7188 Q362.7188,47.0469 362.2188,47.7969 Q361.7344,48.5469 361.7344,49.5781 L361.7344,50.6719 Q361.7344,51.9063 362.625,52.7344 Q363.5156,53.5469 365.1094,53.5469 Q366.0469,53.5469 366.7031,53.2969 Q367.0938,53.1406 367.5156,52.7031 Q367.7813,52.4375 367.9219,52.3594 Q368.0781,52.2813 368.2813,52.2813 Q368.6094,52.2813 368.8594,52.5469 Q369.125,52.7969 369.125,53.1406 Q369.125,53.4844 368.7813,53.8906 Q368.2813,54.4688 367.4844,54.7969 Q366.4063,55.25 365.1094,55.25 Q363.5938,55.25 362.3906,54.625 Q361.4063,54.125 360.7188,53.0625 Q360.0313,51.9844 360.0313,50.7031 L360.0313,49.5469 Q360.0313,48.2188 360.6406,47.0781 Q361.2656,45.9219 362.3594,45.3125 Q363.4531,44.6875 364.6875,44.6875 Q365.4219,44.6875 366.0625,44.8594 Q366.7188,45.0156 367.2656,45.375 Z " fill="#000000"/><text fill="#000000" font-family="sans-serif" font-size="14" lengthAdjust="spacing" textLength="85" x="382.5" y="55.2285">SFML_output</text><line style="stroke:#181818;stroke-width:0.5;" x1="332.5" x2="487.5" y1="65.5" y2="65.5"/><line style="stroke:#181818;stroke-width:0.5;" x1="332.5" x2="487.5" y1="73.5" y2="73.5"/><text fill="#000000" font-family="sans-serif" font-size="14" lengthAdjust="spacing" textLength="107" x="337.5" y="92.0332">+SFML_output();</text><text fill="#000000" font-family="sans-serif" font-size="14" lengthAdjust="spacing" textLength="135" x="337.5" y="109.6426">+void draw_circle(...);</text><text fill="#000000" font-family="sans-serif" font-size="14" lengthAdjust="spacing" textLength="145" x="337.5" y="127.252">+void display(drawing);</text></g><!--reverse link Shape to Circle--><g id="link_Shape_Circle"><path codeLine="18" d="M165.5177,176.7553 C151.3577,201.9753 144.53,214.16 130.78,238.68 " fill="none" id="Shape-backto-Circle" style="stroke:#181818;stroke-width:1.0;"/><polygon fill="none" points="174.33,161.06,160.2859,173.8179,170.7495,179.6928,174.33,161.06" style="stroke:#181818;stroke-width:1.0;"/></g><!--link Shape to Group--><g id="link_Shape_Group"><path codeLine="25" d="M206.097,167.3196 C206.277,183.4496 208.35,194.1 214,209 C220.55,226.25 223.8409,233.3591 236.0109,247.3391 " fill="none" id="Shape-Group" style="stroke:#181818;stroke-width:1.0;"/><polygon fill="#181818" points="206.03,161.32,202.1307,170.3641,206.0858,166.3197,210.1302,170.2748,206.03,161.32" style="stroke:#181818;stroke-width:1.0;"/><polygon fill="#181818" points="243.89,256.39,242.9674,249.2382,236.0109,247.3391,236.9335,254.4909,243.89,256.39" style="stroke:#181818;stroke-width:1.0;"/><polygon fill="#000000" points="217.2492,195.4923,217.6636,204.9939,223.1693,202.9357,217.2492,195.4923" style="stroke:#000000;stroke-width:1.0;"/><text fill="#000000" font-family="sans-serif" font-size="13" lengthAdjust="spacing" textLength="45" x="228" y="205.4951">children</text><text fill="#000000" font-family="sans-serif" font-size="13" lengthAdjust="spacing" textLength="5" x="199.8724" y="182.1772">*</text></g><!--reverse link Shape to Group--><g id="link_Shape_Group"><path codeLine="26" d="M272.8783,177.1802 C277.8483,187.0002 274.3,181.05 278,191 C285.71,211.77 290.85,235.7 294.2,256.34 " fill="none" id="Shape-backto-Group" style="stroke:#181818;stroke-width:1.0;"/><polygon fill="none" points="264.75,161.12,267.5248,179.8897,278.2317,174.4708,264.75,161.12" style="stroke:#181818;stroke-width:1.0;"/></g><!--link Group to Drawing--><g id="link_Group_Drawing"><path codeLine="31" d="M300,363.78 C300,394.25 300,414.35 300,440.87 " fill="none" id="Group-Drawing" style="stroke:#181818;stroke-width:1.0;"/><polygon fill="#181818" points="300,357.78,296,366.78,300,362.78,304,366.78,300,357.78" style="stroke:#181818;stroke-width:1.0;"/><polygon fill="#181818" points="300,452.87,304,446.87,300,440.87,296,446.87,300,452.87" style="stroke:#181818;stroke-width:1.0;"/><polygon fill="#000000" points="305,409.1758,302.0611,418.2209,307.9389,418.2209,305,409.1758" style="stroke:#000000;stroke-width:1.0;"/><text fill="#000000" font-family="sans-serif" font-size="13" lengthAdjust="spacing" textLength="22" x="314" y="419.4951">root</text></g><!--SRC=[hP91JiCm44NtFiMegwHH8jOb6mG28G6R7g1oR8jQEB4riKDBoDrnOvisIEpgtSpt_FSrTlyXEqEHji0KxVixQr4spefdfhkj_19mGsZJMwJCXXkmtLCZO2JWJmbUajqxADe85LjSkqO9E2pBurmMOJmxjEfDSv7FpJ4H9gyF4gsZ2WOjEN2adrbLLNaSJcAaSjUQ84-4X7Jt4fawnujmNAPbMccCbc5W6QWuWq4F0b5o4OM_vBC-aR2P-hiiesiAzOJQcPYf2DKLWQlr2kgoN4VC1jXUAewYW_eoqgocH0yUTx8T_yTF9FZDrkd-1b1hwutZNtXyVTbfPusplrONlIo_JG-NNdF7mhvFhAKeUwFeCUE1vCNf1m00]--></g></svg>